<svg width="19" height="20" viewBox="0 0 19 20" fill="none" xmlns="http://www.w3.org/2000/svg">
<path d="M9.47594 10.8963L10.157 18.6794Z" fill="white"/>
<path d="M9.47594 10.8963L10.157 18.6794" stroke="white" stroke-width="2" stroke-linecap="round"/>
<path d="M9.45257 10.6293C7.02098 10.8421 4.87729 9.04338 4.66453 6.61176C4.45173 4.18019 6.25044 2.0365 8.68201 1.82375C11.1136 1.61094 13.2573 3.40965 13.47 5.84125C13.6829 8.27284 11.8842 10.4165 9.45257 10.6293Z" fill="white" stroke="white" stroke-width="2" stroke-linecap="round"/>
<path d="M5.60242 5.25073C5.50605 5.1518 5.47417 5.00675 5.52016 4.87652L5.71954 4.31192C5.91524 3.75777 6.32182 3.30329 6.85085 3.04733L7.18419 2.88605C7.35898 2.80148 7.56832 2.88938 7.63036 3.07337V3.07337C7.67576 3.20805 7.61852 3.35594 7.49427 3.42495L7.37961 3.48863C6.83336 3.79203 6.42483 4.29402 6.23873 4.89051L6.16863 5.11522C6.09217 5.3603 5.78155 5.43464 5.60242 5.25073V5.25073Z" fill="#F2F2F2"/>
</svg>
