<svg width="17" height="13" viewBox="0 0 17 13" fill="none" xmlns="http://www.w3.org/2000/svg">
<path d="M16.0039 1.54424C15.4155 1.79808 14.7752 1.98078 14.1157 2.05193C14.8004 1.64508 15.3132 1.00231 15.5578 0.244239C14.9153 0.626525 14.2113 0.894591 13.4773 1.03655C13.1705 0.70852 12.7994 0.4472 12.3872 0.268868C11.975 0.0905369 11.5305 -0.000984199 11.0814 7.98154e-06C9.26433 7.98154e-06 7.80297 1.47308 7.80297 3.28078C7.80297 3.53462 7.83373 3.78847 7.88373 4.0327C5.1629 3.89039 2.73627 2.59039 1.123 0.600008C0.829048 1.10215 0.675006 1.6739 0.676902 2.25578C0.676902 3.39424 1.25568 4.39808 2.13826 4.98847C1.61814 4.96798 1.1102 4.825 0.655751 4.57116V4.61154C0.655751 6.20577 1.78254 7.52693 3.28428 7.83077C3.00231 7.90402 2.71225 7.9415 2.42092 7.94231C2.20749 7.94231 2.00559 7.92116 1.80177 7.89231C2.2171 9.19231 3.42657 10.1365 4.86678 10.1673C3.74 11.05 2.32863 11.5692 0.796119 11.5692C0.521152 11.5692 0.267336 11.5596 0.00390625 11.5288C1.45758 12.4615 3.18237 13 5.03984 13C11.0699 13 14.3695 8.00385 14.3695 3.66731C14.3695 3.52501 14.3695 3.3827 14.3599 3.24039C14.9983 2.77308 15.5578 2.19424 16.0039 1.54424Z" fill="white"/>
</svg>
