<svg width="25" height="25" viewBox="0 0 25 25" fill="none" xmlns="http://www.w3.org/2000/svg">
<path fill-rule="evenodd" clip-rule="evenodd" d="M5 12.5C5 10.5109 5.79018 8.60322 7.1967 7.1967C8.60322 5.79018 10.5109 5 12.5 5C14.4891 5 16.3968 5.79018 17.8033 7.1967C19.2098 8.60322 20 10.5109 20 12.5C20 14.4891 19.2098 16.3968 17.8033 17.8033C16.3968 19.2098 14.4891 20 12.5 20C10.5109 20 8.60322 19.2098 7.1967 17.8033C5.79018 16.3968 5 14.4891 5 12.5ZM12.072 15.71L16.39 10.312L15.61 9.688L11.928 14.289L9.32 12.116L8.68 12.884L12.072 15.711V15.71Z" fill="#F5BC42"/>
</svg>
