<svg width="33" height="33" viewBox="0 0 33 33" fill="none" xmlns="http://www.w3.org/2000/svg">
<rect width="33" height="33" rx="9" fill="#F5BC42"/>
<path d="M9.02698 19.1368C9.0539 19.2385 9.10076 19.3339 9.16484 19.4174C9.22892 19.5008 9.30894 19.5707 9.40025 19.623L10.9294 20.5073V22.2686C10.9294 22.481 11.0138 22.6847 11.164 22.8349C11.3142 22.9851 11.518 23.0695 11.7304 23.0695H13.4918L14.3762 24.5993C14.4827 24.783 14.6576 24.9169 14.8627 24.9719C15.0678 25.0268 15.2863 24.9983 15.4703 24.8925L16.9995 24.009L18.5294 24.8933C18.7135 24.9991 18.932 25.0276 19.1371 24.9727C19.3421 24.9177 19.5171 24.7838 19.6236 24.6001L20.5071 23.0711H22.2686C22.481 23.0711 22.6847 22.9867 22.835 22.8365C22.9852 22.6863 23.0696 22.4826 23.0696 22.2702V20.5089L24.5987 19.6246C24.6899 19.5721 24.7698 19.5021 24.8339 19.4187C24.898 19.3352 24.945 19.24 24.9722 19.1384C24.9995 19.0367 25.0064 18.9307 24.9926 18.8264C24.9788 18.7221 24.9446 18.6216 24.8919 18.5305L24.0084 17.0007L24.8927 15.4717C24.9989 15.2877 25.0277 15.0691 24.9727 14.8639C24.9177 14.6587 24.7835 14.4838 24.5995 14.3776L23.0704 13.4933V11.732C23.0704 11.5196 22.986 11.3159 22.8358 11.1657C22.6855 11.0154 22.4818 10.9311 22.2694 10.9311H20.5079L19.6244 9.40204C19.518 9.21832 19.3432 9.08415 19.1382 9.0288C19.0366 9.0013 18.9305 8.99422 18.8262 9.00797C18.7218 9.02172 18.6212 9.05602 18.5302 9.10889L16.9995 9.99234L15.4703 9.10809C15.3793 9.05526 15.2788 9.02091 15.1745 9.00701C15.0702 8.99311 14.9642 8.99993 14.8625 9.02709C14.7609 9.05425 14.6656 9.10122 14.5821 9.16528C14.4987 9.22935 14.4287 9.30926 14.3762 9.40044L13.4918 10.9303H11.7304C11.518 10.9303 11.3142 11.0146 11.164 11.1649C11.0138 11.3151 10.9294 11.5188 10.9294 11.7312V13.4925L9.40025 14.3776C9.21658 14.4841 9.08265 14.6591 9.02784 14.8642C8.97303 15.0693 9.00181 15.2878 9.10788 15.4717L9.9914 17.0007L9.10708 18.5297C9.00126 18.7136 8.97246 18.9318 9.02698 19.1368Z" fill="white"/>
</svg>
