<svg width="33" height="33" viewBox="0 0 33 33" fill="none" xmlns="http://www.w3.org/2000/svg">
<rect width="33" height="33" rx="9" fill="#F5BC42"/>
<path d="M17.561 25.9734C16.8699 23.5193 17.0027 19.0786 16.8679 17Z" fill="white"/>
<path d="M17.561 25.9734C16.8699 23.5193 17.0027 19.0786 16.8679 17" stroke="white" stroke-width="2" stroke-linecap="round"/>
<path fill-rule="evenodd" clip-rule="evenodd" d="M16.9991 19.1421C17.2665 16.2872 16.5608 14.2965 14.8818 13.1691C13.2032 12.0418 11.2821 11.8239 9.12021 12.5152C8.79796 15.1505 9.42286 17.124 10.9941 18.4357C12.5658 19.7474 14.5673 19.9833 16.9991 19.1421Z" fill="white" stroke="white" stroke-width="1.5" stroke-linejoin="round"/>
<path fill-rule="evenodd" clip-rule="evenodd" d="M18.0281 10.2924C16.4758 10.8898 18.1442 13.3245 19.0903 14.6925C19.3013 14.9976 19.5473 15.103 20.0906 14.826C21.4613 14.1272 23.1191 12.2336 23.4596 10.5406C21.8269 9.35105 19.4816 9.7332 18.0281 10.2924V10.2924Z" fill="white" stroke="white" stroke-width="1.5" stroke-linejoin="round"/>
</svg>
