<svg width="25" height="25" viewBox="0 0 25 25" fill="none" xmlns="http://www.w3.org/2000/svg">
<path d="M9.22472 16.0405C8.93619 15.7519 9.0866 15.8333 8.39067 15.647C8.07491 15.5624 7.79733 15.3997 7.54632 15.2048L6.03991 18.8982C5.89415 19.2558 6.16641 19.6443 6.55223 19.6297L8.30168 19.5629L9.50495 20.8339C9.77057 21.1141 10.2367 21.0268 10.3825 20.6692L12.1107 16.4319C11.7508 16.6325 11.3514 16.75 10.9383 16.75C10.2909 16.75 9.68259 16.498 9.22472 16.0405ZM18.7101 18.8982L17.2037 15.2048C16.9527 15.4 16.6751 15.5624 16.3593 15.647C15.6598 15.8343 15.8131 15.7526 15.5253 16.0405C15.0674 16.498 14.4588 16.75 13.8114 16.75C13.3983 16.75 12.9989 16.6321 12.639 16.4319L14.3672 20.6692C14.5129 21.0268 14.9794 21.1141 15.2447 20.8339L16.4483 19.5629L18.1978 19.6297C18.5836 19.6443 18.8559 19.2555 18.7101 18.8982ZM14.7324 15.2891C15.2397 14.7728 15.2978 14.8173 16.0203 14.6204C16.4815 14.4946 16.8421 14.1277 16.9656 13.6582C17.214 12.7153 17.1496 12.8291 17.8272 12.1392C18.1649 11.7955 18.2967 11.2945 18.1732 10.825C17.9252 9.88275 17.9248 10.0142 18.1732 9.07095C18.2967 8.60147 18.1649 8.10044 17.8272 7.75679C17.1496 7.06685 17.214 7.1804 16.9656 6.23778C16.8421 5.7683 16.4815 5.40141 16.0203 5.27557C15.0946 5.0229 15.2062 5.08898 14.5279 4.3987C14.1902 4.05505 13.6978 3.92058 13.2366 4.04642C12.3113 4.29876 12.4404 4.29909 11.5134 4.04642C11.0522 3.92058 10.5598 4.05472 10.2221 4.3987C9.54446 5.08864 9.65602 5.0229 8.73 5.27557C8.26881 5.40141 7.90823 5.7683 7.78472 6.23778C7.53669 7.1804 7.60077 7.06685 6.9231 7.75679C6.58543 8.10044 6.45328 8.60147 6.57713 9.07095C6.82515 10.0126 6.82549 9.88109 6.57713 10.8247C6.45362 11.2942 6.58543 11.7952 6.9231 12.1392C7.60077 12.8291 7.53636 12.7153 7.78472 13.6582C7.90823 14.1277 8.26881 14.4946 8.73 14.6204C9.47308 14.8229 9.52853 14.7911 10.0176 15.2891C10.4569 15.7363 11.1412 15.8164 11.6691 15.4823C11.8802 15.3483 12.1251 15.2772 12.3752 15.2772C12.6252 15.2772 12.8701 15.3483 13.0812 15.4823C13.6088 15.8164 14.2931 15.7363 14.7324 15.2891ZM9.24265 9.84257C9.24265 8.08185 10.6451 6.65447 12.375 6.65447C14.1049 6.65447 15.5074 8.08185 15.5074 9.84257C15.5074 11.6033 14.1049 13.0307 12.375 13.0307C10.6451 13.0307 9.24265 11.6033 9.24265 9.84257Z" fill="#F5BC42"/>
</svg>
