<svg width="25" height="25" viewBox="0 0 25 25" fill="none" xmlns="http://www.w3.org/2000/svg">
<path d="M19.9649 16.3217C19.7901 16.1355 19.173 15.585 18.0386 14.8568C16.8958 14.1222 16.0531 13.6641 15.8113 13.5573C15.79 13.5479 15.7665 13.5444 15.7434 13.5473C15.7203 13.5502 15.6984 13.5593 15.6801 13.5737C15.2906 13.8774 14.6351 14.4352 14.5999 14.4654C14.3729 14.6599 14.3729 14.6599 14.187 14.5993C13.8603 14.4922 12.845 13.9531 11.9604 13.0665C11.0758 12.1798 10.5089 11.1395 10.4018 10.8131C10.3405 10.6269 10.3405 10.6269 10.5357 10.3999C10.5659 10.3647 11.124 9.70914 11.4277 9.32007C11.4421 9.30174 11.4513 9.27984 11.4541 9.25672C11.457 9.23359 11.4536 9.21012 11.4441 9.18881C11.3373 8.94673 10.8793 8.10431 10.1446 6.96154C9.41538 5.82748 8.86559 5.21039 8.67942 5.03561C8.66234 5.01949 8.64123 5.00827 8.6183 5.00315C8.59538 4.99802 8.5715 4.99917 8.54918 5.00648C7.89842 5.23011 7.27055 5.51545 6.67413 5.85862C6.09836 6.19332 5.55326 6.57819 5.04518 7.00875C5.02744 7.02383 5.01414 7.04345 5.00671 7.06551C4.99928 7.08757 4.99799 7.11124 5.00299 7.13398C5.07297 7.4601 5.40746 8.82151 6.44544 10.7073C7.50451 12.6318 8.23845 13.6179 9.79374 15.1678C11.349 16.7178 12.3662 17.4959 14.2929 18.555C16.1786 19.5929 17.5407 19.9277 17.8662 19.9971C17.889 20.002 17.9127 20.0007 17.9348 19.9933C17.9569 19.9858 17.9765 19.9726 17.9917 19.9549C18.4222 19.4468 18.807 18.9017 19.1415 18.3259C19.4846 17.7295 19.77 17.1016 19.9937 16.4509C20.0008 16.4287 20.0019 16.4051 19.9969 16.3824C19.9918 16.3596 19.9808 16.3387 19.9649 16.3217Z" fill="#F5BC42"/>
</svg>
