<svg width="25" height="25" viewBox="0 0 25 25" fill="none" xmlns="http://www.w3.org/2000/svg">
<path d="M6 4C5.44772 4 5 4.44772 5 5V21C5 21.5523 5.44772 22 6 22H10C10.5523 22 11 21.5523 11 21V19.5C11 18.9477 11.4477 18.5 12 18.5V18.5C12.5523 18.5 13 18.9477 13 19.5V21C13 21.5523 13.4477 22 14 22H18C18.5523 22 19 21.5523 19 21V5C19 4.44772 18.5523 4 18 4H6ZM7 7C7 6.44772 7.44772 6 8 6V6C8.55228 6 9 6.44772 9 7V7C9 7.55228 8.55228 8 8 8V8C7.44772 8 7 7.55228 7 7V7ZM11 7C11 6.44772 11.4477 6 12 6V6C12.5523 6 13 6.44772 13 7V7C13 7.55228 12.5523 8 12 8V8C11.4477 8 11 7.55228 11 7V7ZM15 7C15 6.44772 15.4477 6 16 6V6C16.5523 6 17 6.44772 17 7V7C17 7.55228 16.5523 8 16 8V8C15.4477 8 15 7.55228 15 7V7ZM7 11C7 10.4477 7.44772 10 8 10V10C8.55228 10 9 10.4477 9 11V11C9 11.5523 8.55228 12 8 12V12C7.44772 12 7 11.5523 7 11V11ZM11 11C11 10.4477 11.4477 10 12 10V10C12.5523 10 13 10.4477 13 11V11C13 11.5523 12.5523 12 12 12V12C11.4477 12 11 11.5523 11 11V11ZM15 11C15 10.4477 15.4477 10 16 10V10C16.5523 10 17 10.4477 17 11V11C17 11.5523 16.5523 12 16 12V12C15.4477 12 15 11.5523 15 11V11ZM7 15C7 14.4477 7.44772 14 8 14V14C8.55228 14 9 14.4477 9 15V15C9 15.5523 8.55228 16 8 16V16C7.44772 16 7 15.5523 7 15V15ZM11 15C11 14.4477 11.4477 14 12 14V14C12.5523 14 13 14.4477 13 15V15C13 15.5523 12.5523 16 12 16V16C11.4477 16 11 15.5523 11 15V15ZM15 15C15 14.4477 15.4477 14 16 14V14C16.5523 14 17 14.4477 17 15V15C17 15.5523 16.5523 16 16 16V16C15.4477 16 15 15.5523 15 15V15Z" fill="#F5BC42"/>
</svg>
