<svg width="13" height="12" viewBox="0 0 13 12" fill="none" xmlns="http://www.w3.org/2000/svg">
<path d="M6.00229 2.92142C4.29867 2.92142 2.92377 4.29635 2.92377 6C2.92377 7.70365 4.29867 9.07858 6.00229 9.07858C7.70591 9.07858 9.08082 7.70365 9.08082 6C9.08082 4.29635 7.70591 2.92142 6.00229 2.92142ZM6.00229 8.00085C4.90057 8.00085 4.00148 7.10174 4.00148 6C4.00148 4.89826 4.90057 3.99915 6.00229 3.99915C7.10402 3.99915 8.00311 4.89826 8.00311 6C8.00311 7.10174 7.10402 8.00085 6.00229 8.00085ZM9.2069 2.07785C8.80914 2.07785 8.48793 2.39907 8.48793 2.79684C8.48793 3.1946 8.80914 3.51582 9.2069 3.51582C9.60466 3.51582 9.92587 3.19611 9.92587 2.79684C9.92599 2.70238 9.90747 2.60884 9.87138 2.52155C9.83529 2.43427 9.78234 2.35496 9.71555 2.28817C9.64877 2.22138 9.56946 2.16843 9.48218 2.13234C9.3949 2.09625 9.30135 2.07773 9.2069 2.07785V2.07785ZM12.0032 6C12.0032 5.17144 12.0107 4.35039 11.9642 3.52333C11.9177 2.56268 11.6985 1.7101 10.9961 1.00763C10.2921 0.303651 9.44105 0.0860043 8.48042 0.0394728C7.65188 -0.00705862 6.83084 0.000446468 6.00379 0.000446468C5.17525 0.000446468 4.35421 -0.00705862 3.52717 0.0394728C2.56654 0.0860043 1.71398 0.305152 1.01151 1.00763C0.307552 1.7116 0.0899089 2.56268 0.0433783 3.52333C-0.00315224 4.35189 0.00435271 5.17294 0.00435271 6C0.00435271 6.82706 -0.00315224 7.64961 0.0433783 8.47667C0.0899089 9.43732 0.309053 10.2899 1.01151 10.9924C1.71548 11.6963 2.56654 11.914 3.52717 11.9605C4.35571 12.0071 5.17675 11.9996 6.00379 11.9996C6.83234 11.9996 7.65338 12.0071 8.48042 11.9605C9.44105 11.914 10.2936 11.6948 10.9961 10.9924C11.7 10.2884 11.9177 9.43732 11.9642 8.47667C12.0122 7.64961 12.0032 6.82856 12.0032 6V6ZM10.6824 9.53939C10.5728 9.81258 10.4407 10.0167 10.2291 10.2269C10.0174 10.4385 9.8148 10.5706 9.54162 10.6802C8.7521 10.9939 6.87737 10.9233 6.00229 10.9233C5.12722 10.9233 3.25099 10.9939 2.46147 10.6817C2.18829 10.5721 1.98415 10.44 1.77402 10.2284C1.56238 10.0167 1.43029 9.81408 1.32072 9.54089C1.00851 8.74986 1.07906 6.87509 1.07906 6C1.07906 5.12491 1.00851 3.24864 1.32072 2.45911C1.43029 2.18592 1.56238 1.98179 1.77402 1.77164C1.98565 1.5615 2.18829 1.42791 2.46147 1.31834C3.25099 1.00613 5.12722 1.07667 6.00229 1.07667C6.87737 1.07667 8.7536 1.00613 9.54312 1.31834C9.8163 1.42791 10.0204 1.56 10.2306 1.77164C10.4422 1.98329 10.5743 2.18592 10.6839 2.45911C10.9961 3.24864 10.9255 5.12491 10.9255 6C10.9255 6.87509 10.9961 8.74986 10.6824 9.53939Z" fill="white"/>
</svg>
