<svg width="25" height="25" viewBox="0 0 25 25" fill="none" xmlns="http://www.w3.org/2000/svg">
<path fill-rule="evenodd" clip-rule="evenodd" d="M4 10.7355C4 6.81144 7.8101 5.00825 11.5413 5.00003C15.2724 4.9918 18.9838 6.99207 18.9838 10.7022C18.9838 13.7059 18.984 17.3933 18.9841 18.6887C18.9842 18.9754 18.8041 19.2302 18.5342 19.3268V19.3268C18.3694 19.3858 18.1882 19.3788 18.0284 19.3073L17.9706 19.2815C17.8067 19.2082 17.684 19.0657 17.6357 18.8928L17.6136 18.8137C17.585 18.7115 17.569 18.6091 17.5658 18.503C17.5398 17.6402 17.4168 13.4109 17.4168 10.6853C17.4168 7.63799 14.8455 6.36929 11.4798 6.36657C8.11398 6.36385 5.51793 7.61577 5.51793 10.6962V16.5577L5.15317 16.8369H4.43733L4 16.5577V10.7355Z" fill="#F5BC42"/>
<path d="M10.1957 15.8757L10.1958 15.8756C10.2016 15.5098 10.2074 13.1608 10.2016 12.7834C10.2012 12.7532 10.1859 12.7051 10.1317 12.6563C10.0761 12.6061 10.0081 12.5823 9.95613 12.5823C9.82735 12.5823 9.75216 12.5819 9.67795 12.5815C9.53252 12.5808 9.39087 12.5801 8.85703 12.5823L10.1957 15.8757ZM10.1957 15.8757C10.1942 15.9736 10.1151 16.0817 9.95613 16.0817M10.1957 15.8757L9.95613 16.0817M9.95613 16.0817C9.81644 16.0817 9.72764 16.0798 9.63271 16.0778M9.95613 16.0817L9.63271 16.0778M9.63271 16.0778C9.47359 16.0744 9.29729 16.0706 8.83535 16.0748M9.63271 16.0778L8.83535 16.0748M8.83535 16.0748C8.35256 16.0792 7.89264 15.6271 7.89264 15.1284M8.83535 16.0748L7.89264 15.1284M7.89264 15.1284C7.89264 14.8046 7.90113 14.5936 7.90924 14.3921M7.89264 15.1284L7.90924 14.3921M7.90924 14.3921C7.91052 14.3602 7.91179 14.3286 7.91302 14.2968M7.90924 14.3921L7.91302 14.2968M7.91302 14.2968C7.92223 14.0585 7.92843 13.8198 7.91607 13.4336L7.91302 14.2968ZM12.7446 12.586C12.9123 12.586 12.9976 12.5827 13.0898 12.5791C13.1102 12.5783 13.1308 12.5775 13.1528 12.5767C13.2707 12.5725 13.4443 12.5681 13.8514 12.5681C14.4225 12.5681 14.8088 12.9811 14.8088 13.4413V15.1255C14.8088 15.6824 14.3815 16.0916 13.8474 16.0916C13.4583 16.0916 13.2785 16.0892 13.1452 16.0875C13.0145 16.0857 12.9285 16.0846 12.7337 16.0869C12.6082 16.0883 12.4967 15.987 12.4967 15.8446C12.4967 15.6343 12.4999 14.9689 12.503 14.3025L12.5031 14.2827C12.5062 13.625 12.5093 12.9706 12.5093 12.7663C12.5093 12.7132 12.5283 12.6775 12.5616 12.6482C12.6002 12.6143 12.6647 12.586 12.7446 12.586ZM7.91607 13.4335C7.90271 13.0136 8.28948 12.5848 8.85698 12.5823L7.91607 13.4335Z" fill="#F5BC42" stroke="#F5BC42"/>
<path d="M13.6265 18.5706L17.5706 18.5706L18.9841 18.4293V18.4293C18.9841 19.3241 18.2588 20.0494 17.364 20.0494L13.6265 20.0494L13.6265 18.5706Z" fill="#F5BC42"/>
<circle cx="14.0366" cy="19.2774" r="0.98952" fill="#F5BC42"/>
</svg>
